<?xml version="1.0" encoding="utf-8"?>
<!-- Generator: Adobe Illustrator 21.1.0, SVG Export Plug-In . SVG Version: 6.00 Build 0)  -->
<svg version="1.1" id="Calque_1" xmlns="http://www.w3.org/2000/svg" xmlns:xlink="http://www.w3.org/1999/xlink" x="0px" y="0px"
	 viewBox="0 0 16 16" style="enable-background:new 0 0 16 16;" xml:space="preserve">
<style type="text/css">
	.st0{fill:#999999;}
</style>
<path class="st0" d="M12.4,0.9c-0.3,0-0.6,0.3-0.6,0.6v11c0,0.3,0.3,0.6,0.6,0.6s0.6-0.3,0.6-0.6v-11C13,1.2,12.7,0.9,12.4,0.9z"/>
<path class="st0" d="M8.3,7.7H5.7c-0.5,0-0.9-0.4-0.9-0.9V1.5c0-0.3-0.3-0.6-0.6-0.6c-0.3,0-0.6,0.3-0.6,0.6v11
	c0,0.3,0.3,0.6,0.6,0.6c0.3,0,0.6-0.3,0.6-0.6V9.9c0-0.5,0.4-0.9,0.9-0.9h2.6c0.3,0,0.6-0.3,0.6-0.6C8.9,7.9,8.7,7.7,8.3,7.7
	L8.3,7.7z"/>
</svg>
