<svg id="Calque_1" data-name="Calque 1" xmlns="http://www.w3.org/2000/svg" viewBox="0 0 9.4 12.2"><title>h-yellow-light</title><path d="M12.4.9a.65.65,0,0,0-.6.6v11a.6.6,0,1,0,1.2,0V1.5A.65.65,0,0,0,12.4.9Z" transform="translate(-3.6 -0.9)" style="fill:#fbe552"/><path d="M8.3,7.7H5.7a.9.9,0,0,1-.9-.9V1.5A.65.65,0,0,0,4.2.9a.65.65,0,0,0-.6.6v11a.65.65,0,0,0,.6.6.65.65,0,0,0,.6-.6V9.9A.9.9,0,0,1,5.7,9H8.3a.65.65,0,0,0,.6-.6c0-.5-.2-.7-.6-.7Z" transform="translate(-3.6 -0.9)" style="fill:#fbe552"/></svg>