<svg id="Hvor_Logo" data-name="Hvor Logo" xmlns="http://www.w3.org/2000/svg" viewBox="0 0 446.15 77.82"><defs><style>.cls-1{fill:#1d1d1b;}</style></defs><title>Logo_Hvor</title><path class="cls-1" d="M215.23,33.41a4,4,0,0,0-5.25,2.1L186,91.34a3.27,3.27,0,0,1-4.39-.1c-.08-.08-.16-.13-.24-.2L157.86,35.53a4,4,0,0,0-7.37,3.13l29.59,69.73a4,4,0,0,0,3.68,2.44h0a4,4,0,0,0,3.68-2.42l29.89-69.73A4,4,0,0,0,215.23,33.41Z" transform="translate(-28.92 -33.09)"/><path class="cls-1" d="M317.45,33.09a38.8,38.8,0,1,0,38.8,38.8A38.84,38.84,0,0,0,317.45,33.09Zm0,69.59a30.8,30.8,0,1,1,30.8-30.8A30.83,30.83,0,0,1,317.45,102.68Z" transform="translate(-28.92 -33.09)"/><path class="cls-1" d="M85.18,33.09a4,4,0,0,0-4,4v69.73a4,4,0,0,0,8,0V37.09A4,4,0,0,0,85.18,33.09Z" transform="translate(-28.92 -33.09)"/><path class="cls-1" d="M59.47,76H42.9a6,6,0,0,1-6-6V37.09a4,4,0,0,0-8,0v69.73a4,4,0,0,0,8,0V89.94a6,6,0,0,1,6-6H59.47a4,4,0,0,0,0-8Z" transform="translate(-28.92 -33.09)"/><path class="cls-1" d="M417.25,37.09a4,4,0,0,1,4-4H449.6a25.46,25.46,0,0,1,6.69,50l13.6,21.66a4,4,0,1,1-6.78,4.25l-16.89-26.9A4,4,0,0,1,449.62,76a17.46,17.46,0,0,0,0-34.92l-18,.06c-.12,0-6.33-.23-6.32,6v59.75a4,4,0,1,1-8,0V37.09Z" transform="translate(-28.92 -33.09)"/></svg>