<svg id="Hvor_Logo" data-name="Hvor Logo" xmlns="http://www.w3.org/2000/svg" viewBox="0 0 446.07 77.8"><title>logo-hvor-grey</title><path d="M186.31.32a4,4,0,0,0-5.25,2.1l-24,55.83a3.27,3.27,0,0,1-4.39-.1c-.08-.08-.16-.13-.24-.2L128.94,2.44a4,4,0,0,0-7.37,3.13L151.16,75.3a4,4,0,0,0,3.68,2.44h0a4,4,0,0,0,3.68-2.42L188.41,5.59A4,4,0,0,0,186.33.33Z" transform="translate(0.02 0)" style="fill:#999"/><path d="M288.53,0a38.8,38.8,0,1,0,38.8,38.8h0A38.84,38.84,0,0,0,288.53,0Zm0,69.59a30.8,30.8,0,1,1,30.8-30.8h0A30.83,30.83,0,0,1,288.53,69.59Z" transform="translate(0.02 0)" style="fill:#999"/><path d="M56.26,0a4,4,0,0,0-4,4V73.73a4,4,0,0,0,8,0V4A4,4,0,0,0,56.26,0Z" transform="translate(0.02 0)" style="fill:#999"/><path d="M30.55,42.91H14a6,6,0,0,1-6-6V4A4,4,0,0,0,0,4V73.73a4,4,0,0,0,8,0V56.85a6,6,0,0,1,6-6H30.55a4,4,0,0,0,0-8Z" transform="translate(0.02 0)" style="fill:#999"/><path d="M388.33,4a4,4,0,0,1,4-4h28.35a25.46,25.46,0,0,1,6.69,50L441,71.66a4,4,0,1,1-6.78,4.25h0L417.3,49a4,4,0,0,1,3.4-6.1A17.46,17.46,0,0,0,420.7,8l-18,.06c-.12,0-6.33-.23-6.32,6V73.8a4,4,0,1,1-8,0V4Z" transform="translate(0.02 0)" style="fill:#999"/></svg>